<svg id="Grupo_4" data-name="Grupo 4" xmlns="http://www.w3.org/2000/svg" xmlns:xlink="http://www.w3.org/1999/xlink" width="908.245" height="232.353" viewBox="0 0 908.245 232.353">
  <defs>
    <clipPath id="clip-path">
      <rect id="Rectángulo_2" data-name="Rectángulo 2" width="908.245" height="232.353" fill="none"/>
    </clipPath>
  </defs>
  <g id="Grupo_3" data-name="Grupo 3" clip-path="url(#clip-path)">
    <path id="Trazado_7" data-name="Trazado 7" d="M397.668,118.662h4.944v98.874H383.9V130.669c0-2.826,6-12.007,13.772-12.007m102.4,21.894q-13.771,0-21.187,11.653V118.662h-2.119c-9.181,0-14.125,4.944-16.6,9.181v56.146c0,22.247,11.653,33.547,34.959,33.547,23.3-.353,34.6-13.065,34.6-37.784C529.735,153.974,519.848,141.262,500.073,140.556Zm-5.65,60.736c-10.594,0-15.89-7.768-15.537-22.6.706-14.478,5.65-21.54,15.89-21.54s15.184,7.062,15.89,21.54c0,15.185-5.649,22.6-16.243,22.6m46.259-22.6c.706-24.012,12.359-37.43,37.43-37.43h5.65v19.421h-8.828c-10.594,0-15.184,6.71-15.184,17.656v38.843H540.681Zm72.742,19.422c3.178,2.825,7.416,4.237,13.066,4.237a16.819,16.819,0,0,0,10.24-3.178q4.238-3.179,5.3-6.356h17.656c-2.825,8.828-7.063,14.83-13.066,18.715s-12.712,5.65-21.187,5.65a43.471,43.471,0,0,1-15.537-2.825,33.735,33.735,0,0,1-11.653-7.769,38.1,38.1,0,0,1-7.416-12.006,43.509,43.509,0,0,1-2.471-15.537,42.958,42.958,0,0,1,2.825-15.184,34.878,34.878,0,0,1,19.068-20.129c4.591-2.119,9.534-2.825,15.185-2.825,6,0,11.653,1.06,16.243,3.532a33.238,33.238,0,0,1,11.3,9.534,41.268,41.268,0,0,1,6.357,13.771,49.016,49.016,0,0,1,1.412,16.244H608.128c.706,6.709,2.471,11.3,5.3,14.125Zm22.6-38.137c-2.472-2.472-6-3.884-10.947-3.884a18.413,18.413,0,0,0-8.121,1.765,14.248,14.248,0,0,0-4.945,3.884,17.749,17.749,0,0,0-2.825,4.944,31.222,31.222,0,0,0-1.058,4.944h32.487c-.354-5.3-2.12-9.181-4.592-11.653ZM422.74,118.662h18.715v16.95H422.74Zm0,25.424h18.715v73.1H422.74ZM884.206,79.465a17.127,17.127,0,0,1-25.425,0c-3.177-3.531-4.237-9.534-4.237-16.6,0-7.416,1.414-12.712,4.237-16.243a17.127,17.127,0,0,1,25.425,0c3.179,3.531,4.237,9.534,4.237,16.243s-1.058,12.359-4.237,16.6m14.831-43.787c-5.649-7.415-15.185-11.653-27.544-11.653-12.006,0-21.892,3.532-27.542,11.653a43.988,43.988,0,0,0-9.182,26.837c0,10.594,3.179,19.775,9.182,26.837,5.65,7.416,15.184,11.3,27.542,11.3,12.007,0,21.893-3.531,27.544-11.3a43.983,43.983,0,0,0,9.182-26.837,39.452,39.452,0,0,0-9.182-26.837m-91.81,43.787c-2.473,3.532-6.711,5.65-12.007,5.65s-9.535-2.118-11.654-5.65c-2.471-4.237-3.531-9.534-3.531-16.6,0-6.356,1.06-11.3,3.531-15.184,2.472-4.238,6.357-6.357,12.007-6.357a15.5,15.5,0,0,1,9.534,3.178c4.237,3.532,6.709,10.594,6.709,19.775-1.06,6.356-1.766,11.653-4.591,15.184ZM829.12,2.485S810.05.367,810.05,15.55V35.678a26.779,26.779,0,0,0-8.474-8.122c-3.179-2.119-7.416-2.472-11.654-2.472A28.469,28.469,0,0,0,766.97,35.678c-5.65,6.709-8.475,16.95-8.475,29.662,0,10.594,2.471,19.775,8.475,25.778,5.65,6.709,16.949,9.534,26.837,9.534,34.959,0,34.253-29.662,34.253-29.662ZM735.189,70.637c0,6.357-2.118,10.594-5.3,13.066a22.354,22.354,0,0,1-11.3,3.531c-2.473,0-4.591-.353-6.358-2.119s-2.47-3.531-2.47-6.709A9.04,9.04,0,0,1,714,70.284c1.412-1.06,4.591-2.119,8.474-2.472l4.237-1.059c2.119-.353,3.532-1.06,5.3-1.06,1.06-.353,2.472-1.059,3.531-1.412Zm9.534-41.314c-6.356-3.179-13.064-4.591-21.187-4.591-12.006,0-20.834,3.178-25.778,9.534-3.177,4.237-4.59,9.181-5.3,15.184H710.47a17.1,17.1,0,0,1,2.473-6.356q3.177-3.179,9.534-3.178c4.237,0,6.709.353,9.18,1.412q3.179,1.59,3.178,6.357,0,3.706-4.237,5.3a55.813,55.813,0,0,1-7.415,1.413l-6.357.353c-7.415,1.06-12.711,2.472-16.6,4.591-6.709,3.531-10.24,10.593-10.24,19.068q0,10.065,6.356,15.891c4.237,3.531,9.534,5.3,16.243,5.649,41.315,1.413,40.962-21.893,40.962-26.483V46.626c.353-7.769-2.472-14.125-8.828-17.3M651.146,40.976q6.887,0,10.594,4.237a13.32,13.32,0,0,1,2.471,7.415h20.128c-1.059-10.24-4.591-17.656-10.593-21.187-5.65-4.237-13.772-5.65-23.306-5.65-11.3,0-20.127,3.179-26.484,10.241s-9.534,16.6-9.534,28.6c0,11.3,2.471,19.774,8.475,26.483,5.65,6.71,14.831,10.241,26.837,10.241s21.188-4.237,27.543-12.006a36.957,36.957,0,0,0,6.356-16.6H663.506a16.257,16.257,0,0,1-3.531,9.181c-2.118,2.119-5.3,3.532-10.241,3.532-6.356,0-11.3-3.179-13.065-9.181a39.5,39.5,0,0,1-2.119-12.713c0-5.3.354-10.24,2.119-13.065,3.178-6.356,7.415-9.534,14.478-9.534m-42.022-15.89c-42.021,0-39.2,37.077-39.2,37.077V99.594H589V64.635c0-5.65.354-10.241,2.118-12.712,2.473-4.591,7.416-7.416,15.185-7.416h2.118a9.776,9.776,0,0,1,3.178.353V25.792h-1.412c-.353-.706-.353-.706-1.06-.706M514.49,44.507a15.739,15.739,0,0,1,11.3-4.237,17.966,17.966,0,0,1,11.3,3.531c3.177,2.472,4.59,6.357,4.59,11.3H509.192c1.06-4.237,2.472-7.769,5.3-10.594m25.424,34.959a4.265,4.265,0,0,1-2.472,2.472c-2.472,2.119-6.356,2.472-10.594,2.472s-7.415-.353-10.24-2.472c-4.591-2.472-7.416-8.122-7.416-14.831h52.262c0-6.356,0-11.3-.352-14.125-1.06-5.65-2.472-10.593-5.651-14.831a31.146,31.146,0,0,0-12.006-10.593c-4.59-2.119-10.593-3.178-16.95-3.178-10.593,0-19.068,3.178-25.424,10.24-6.356,6.71-10.241,16.244-10.241,28.6,0,13.065,3.532,22.953,11.3,28.6,7.416,5.65,15.89,9.181,25.424,9.181,11.654,0,20.835-3.531,26.837-10.593a21.679,21.679,0,0,0,6.357-11.3ZM482.708,99.241H465.052V55.807c0-4.237-1.059-13.065-12.712-13.065-7.415,0-13.065,5.3-13.065,13.065V99.241H421.619V55.807c0-4.237-1.059-13.065-12.712-13.065-7.416,0-12.712,5.3-12.712,13.065V99.241H378.539V56.16c0-18.009,11.653-31.78,30.015-31.78,9.181,0,16.6,3.531,21.893,10.24A27.676,27.676,0,0,1,452.34,24.38c19.069,0,30.015,13.065,30.015,31.78ZM336.169,109.82C336.169,49.437,260.954,0,168.084,0S0,49.437,0,109.82v6.356c0,64.268,65.68,116.177,168.084,116.177,102.758,0,168.085-51.909,168.085-116.177Z" fill="#2d3277"/>
    <path id="Trazado_8" data-name="Trazado 8" d="M330.168,109.82c0,56.852-72.389,103.111-161.375,103.111S7.417,166.672,7.417,109.82,79.807,6.709,168.793,6.709,330.168,52.968,330.168,109.82" fill="#ffe600"/>
    <path id="Trazado_9" data-name="Trazado 9" d="M115.118,77.333s-1.766,1.767-.706,3.179c2.472,3.177,10.24,4.944,18.362,3.177,4.591-1.058,10.947-6,16.6-10.593,6.357-4.944,12.713-10.241,19.069-12.006a22.693,22.693,0,0,1,13.772-.352c3.178,1.059,6.709,3.177,12.712,7.414,10.947,8.123,55.439,46.966,63.208,53.674,6-2.825,33.547-14.478,70.977-22.952C325.93,79.1,313.924,60.736,295.562,45.906,270.137,56.5,238.71,62.15,207.988,47.318c0,0-16.6-7.769-33.193-7.416-24.365.707-34.606,10.948-45.906,22.248Z" fill="#fff"/>
    <path id="Trazado_10" data-name="Trazado 10" d="M256.365,126.064c-.353-.353-52.262-45.552-63.915-54.38-6.709-4.944-10.593-6.357-14.477-7.063a16.134,16.134,0,0,0-7.063.706c-5.3,1.413-12.712,6.357-19.068,11.3-6.71,5.3-12.712,10.24-18.362,11.3-7.416,1.765-16.244-.354-20.128-3.179a9.139,9.139,0,0,1-3.531-3.884c-1.413-3.531,1.412-6.356,1.765-6.709l14.125-15.538,4.944-4.943c-4.591.706-8.828,1.765-13.065,2.825-5.3,1.412-10.241,2.825-15.185,2.825a118.484,118.484,0,0,1-15.537-2.472A238.7,238.7,0,0,1,45.553,42.021c-20.127,15.185-33.9,33.9-37.783,54.734,2.825.706,7.768,2.119,9.534,2.472,45.9,10.24,60.03,20.834,62.855,22.952a14.685,14.685,0,0,1,11.3-4.943,15.382,15.382,0,0,1,12.359,6.356,17.022,17.022,0,0,1,10.947-3.884,24.005,24.005,0,0,1,6.709,1.059,14.694,14.694,0,0,1,9.181,8.475,16.871,16.871,0,0,1,6.356-1.412,22.281,22.281,0,0,1,7.769,1.765c8.475,3.531,9.887,12.006,9.181,18.362h1.765a18.236,18.236,0,0,1,18.362,18.362,16.782,16.782,0,0,1-2.118,8.475c2.825,1.413,9.534,4.944,15.89,4.237,4.944-.706,6.71-2.118,7.416-3.178.353-.706,1.059-1.412.353-2.118l-13.066-14.478s-2.118-2.119-1.412-2.825,2.118.353,3.178,1.059c6.709,5.65,14.478,13.772,14.478,13.772s.706,1.06,3.531,1.766c2.472.353,7.062,0,10.241-2.472.706-.706,1.765-1.413,2.118-2.119,3.178-4.237-.353-8.475-.353-8.475l-15.184-16.95s-2.119-2.118-1.413-2.825,2.119.353,3.178,1.06c4.944,3.884,11.654,10.946,18.009,17.3,1.413,1.059,7.063,4.591,14.478-.353,4.591-3.178,5.65-6.71,5.3-9.534a12,12,0,0,0-3.178-6.357L215.05,121.473s-2.119-1.765-1.413-2.825c.706-.706,2.119.353,3.178,1.06,6.71,5.65,24.366,21.893,24.366,21.893a12.952,12.952,0,0,0,14.124-.353c2.826-1.766,4.591-4.237,4.591-7.416.353-4.59-3.531-7.768-3.531-7.768" fill="#fff"/>
    <path id="Trazado_11" data-name="Trazado 11" d="M156.432,152.548c-3.178,0-6.709,1.766-7.062,1.766s0-1.413.353-2.119,4.59-13.419-5.65-18.009c-7.769-3.531-12.712.353-14.125,2.119-.353.353-.706.353-.706,0a11.149,11.149,0,0,0-8.122-10.594c-9.887-3.178-15.89,3.884-17.656,6.356a11.341,11.341,0,1,0-11.3,12.712,10.381,10.381,0,0,0,7.769-3.178v.353c-.353,2.825-1.413,13.065,9.181,16.95,4.237,1.765,7.768.353,10.947-1.766,1.059-.706,1.059-.353,1.059.353-.353,2.472,0,8.122,8.122,11.3,6,2.472,9.534,0,11.653-2.119,1.06-1.059,1.413-.706,1.413.706a14.133,14.133,0,1,0,14.124-14.83Z" fill="#fff"/>
    <path id="Trazado_12" data-name="Trazado 12" d="M258.484,120.767c-15.891-13.771-52.615-45.9-62.856-53.321-5.65-4.237-9.534-6.709-13.065-7.415a21.868,21.868,0,0,0-14.478.353c-6.357,2.119-12.713,7.062-19.069,12.006l-.353.353c-5.65,4.591-11.653,9.181-16.243,10.241a34.813,34.813,0,0,1-6,.706c-4.944,0-9.534-1.413-11.3-3.531-.353-.354,0-1.06.706-1.766l14.125-15.184c10.947-10.947,21.187-21.188,45.2-21.894h1.06c14.831,0,29.662,6.71,31.428,7.416,14.125,6.709,28.249,10.24,42.727,10.24,15.184,0,30.721-3.884,46.965-11.3-1.764-1.413-3.884-3.178-5.65-4.591-14.477,6.356-27.9,9.181-41.314,9.181a90.7,90.7,0,0,1-39.9-9.534c-.706-.353-16.95-8.122-34.253-8.122h-1.412c-20.128.353-31.428,7.415-38.843,13.772-7.416,0-13.772,2.118-19.422,3.531-4.944,1.413-9.534,2.472-13.772,2.472h-5.3c-4.944,0-29.662-6-49.084-13.772-2.119,1.412-3.884,2.825-6,4.237C62.856,53.321,87.928,59.677,95.7,60.383c2.119,0,4.591.354,7.062.354,5.3,0,10.241-1.413,15.538-2.826,3.178-.706,6.356-1.765,9.534-2.471L125,58.265,110.88,73.8c-1.06,1.06-3.531,4.237-2.119,7.769a14.124,14.124,0,0,0,3.885,4.237,32.079,32.079,0,0,0,15.184,3.884,31.119,31.119,0,0,0,6-.706c6-1.412,12.359-6.356,18.715-11.653,5.3-4.237,12.712-9.534,18.362-11.3a27.269,27.269,0,0,1,5.3-.706h1.413c3.884.353,7.415,1.766,14.124,6.71,11.653,8.828,63.562,54.027,63.915,54.38a10.936,10.936,0,0,1,3.178,7.769c0,2.471-1.766,4.943-4.237,6.709a12.485,12.485,0,0,1-6.71,2.118,11.2,11.2,0,0,1-6-1.765S223.879,125,217.522,119.355a4.877,4.877,0,0,0-3.178-1.766,1.834,1.834,0,0,0-1.412.706c-1.06,1.413,0,3.178,1.412,4.237l20.834,20.835A10.766,10.766,0,0,1,238,149.016a9.22,9.22,0,0,1-4.943,8.475,12.439,12.439,0,0,1-7.416,2.472,11.885,11.885,0,0,1-6-1.766l-3.178-2.825c-5.3-5.3-10.946-10.946-15.184-14.125-1.06-.706-2.119-1.765-3.178-1.765a1.411,1.411,0,0,0-1.413.706c-.353.353-.706,1.413.353,3.178a2.641,2.641,0,0,0,1.06,1.06l15.184,16.95s3.178,3.884.353,7.062l-.706.706-1.413,1.413a12.174,12.174,0,0,1-7.415,2.471h-2.119a6.66,6.66,0,0,1-3.178-1.412c-.706-1.06-8.475-8.475-14.831-13.772a4.359,4.359,0,0,0-2.825-1.413,2.676,2.676,0,0,0-1.412.706c-1.06,1.413.706,3.532,1.412,4.238L194.216,175.5a2.738,2.738,0,0,1-.353,1.06c-.353.706-2.118,2.119-6.709,2.825h-1.766c-4.943,0-9.887-2.472-12.712-3.884a20.937,20.937,0,0,0,1.766-8.122,18.99,18.99,0,0,0-19.069-19.069h-.706c.353-4.943-.353-14.124-9.887-18.009a22.437,22.437,0,0,0-8.122-1.765,17.941,17.941,0,0,0-6,1.059,16.677,16.677,0,0,0-9.534-8.122,24.478,24.478,0,0,0-7.062-1.059,16.663,16.663,0,0,0-10.594,3.531,16.341,16.341,0,0,0-24.012-1.412c-3.884-3.178-19.774-13.065-62.5-22.953a68.882,68.882,0,0,1-9.534-2.825c-.353,2.119-.7,4.591-1.059,7.062,0,0,7.768,1.766,9.535,2.119,43.432,9.534,57.91,19.775,60.382,21.54a20.008,20.008,0,0,0-1.06,6.357,16.2,16.2,0,0,0,16.244,16.243,9.782,9.782,0,0,0,3.178-.353A18.6,18.6,0,0,0,107,163.847a17.566,17.566,0,0,0,5.65,1.059,15.833,15.833,0,0,0,3.884-.353c1.06,3.178,3.884,7.063,10.241,9.534a13.839,13.839,0,0,0,6.356,1.413,11.27,11.27,0,0,0,4.944-1.06,19.244,19.244,0,0,0,17.656,12.006,18.436,18.436,0,0,0,13.772-6c3.178,1.765,9.534,4.943,16.243,4.943h2.472c6.709-.706,9.534-3.531,10.946-5.3.353-.353.353-.706.706-1.06a21.383,21.383,0,0,0,5.3.706,16.437,16.437,0,0,0,10.594-3.884c3.531-2.472,6-6,6-9.181a12.012,12.012,0,0,0,3.531.353,19.147,19.147,0,0,0,10.946-3.531,15.739,15.739,0,0,0,7.769-13.772,12.012,12.012,0,0,0,3.531.353,18.409,18.409,0,0,0,10.241-3.178c4.237-2.825,6.709-6.709,7.062-11.3a16.777,16.777,0,0,0-2.119-9.181c11.3-4.944,36.726-14.125,67.093-21.187a24.436,24.436,0,0,0-1.06-7.062c-36.371,7.768-63.561,19.421-70.27,22.6ZM156.432,179.738a13.2,13.2,0,0,1-13.065-12.712c0-.706,0-2.119-1.413-2.119-.706,0-1.059.353-1.765.706a8.953,8.953,0,0,1-6.357,2.825,9.4,9.4,0,0,1-4.237-1.059c-7.415-3.178-7.768-8.122-7.415-10.241,0-.706,0-1.059-.353-1.412l-.353-.353h-.353c-.354,0-.707,0-1.413.706a11.393,11.393,0,0,1-6.356,2.118,12.555,12.555,0,0,1-3.532-.706c-9.887-3.884-9.181-13.065-8.475-15.89,0-.706,0-1.06-.353-1.413l-.706-.706-.706.706a11.209,11.209,0,0,1-7.062,2.825,10.241,10.241,0,1,1,0-20.481,10.579,10.579,0,0,1,10.24,8.828l.354,2.826,1.412-2.472a13.582,13.582,0,0,1,12.006-6.356,24.312,24.312,0,0,1,4.591.706,9.938,9.938,0,0,1,7.062,9.534c0,1.412,1.06,1.412,1.06,1.412.353,0,1.059-.353,1.059-.706a10.4,10.4,0,0,1,7.416-3.178,12.1,12.1,0,0,1,5.65,1.413c9.534,4.237,5.3,16.243,5.3,16.6-.706,2.119-1.059,2.825,0,3.531h.706a3.84,3.84,0,0,0,1.766-.353,20.379,20.379,0,0,1,4.944-1.059,13.266,13.266,0,0,1,13.065,13.065,12.626,12.626,0,0,1-12.712,13.419Z" fill="#2d3277"/>
  </g>
</svg>
